<svg width="68" height="48" viewBox="0 0 68 48" fill="none" xmlns="http://www.w3.org/2000/svg">
<path d="M29.7415 24.8772C27.6124 28.6781 23.2775 30.4865 18.8943 30.4865H1.30769C19.6154 28.2162 32.3654 19.1351 34 6.48648C35.6346 19.1351 48.3846 28.2162 66.6923 30.4865H49.1057C44.7225 30.4865 40.3876 28.6781 38.2585 24.8772C35.9541 20.7632 34.4859 16.1081 34 11.027C33.5141 16.1081 32.0459 20.7632 29.7415 24.8772Z" fill="#31511E"/>
<path d="M19.6841 23.5338C18.6571 24.1074 17.5768 24.6462 16.4457 25.1481C15.8031 22.9461 15.5667 20.636 15.7553 18.3347C16.0047 15.2903 16.9903 12.3552 18.6246 9.78961C20.259 7.22401 22.4917 5.10694 25.125 3.626C27.7583 2.14507 30.711 1.34596 33.7213 1.29946C36.7317 1.25295 39.7069 1.96049 42.3834 3.3594C45.0599 4.7583 47.3551 6.80537 49.0657 9.31933C50.7763 11.8333 51.8494 14.7365 52.1901 17.7718C52.4687 20.2545 52.2503 22.763 51.5543 25.1481C50.4232 24.6462 49.3429 24.1074 48.3159 23.5338C48.7489 21.7901 48.8702 19.976 48.6685 18.1788C48.3938 15.7311 47.5283 13.3899 46.149 11.3627C44.7696 9.33549 42.9187 7.68468 40.7604 6.55661C38.602 5.42853 36.2028 4.85797 33.7753 4.89547C31.3477 4.93297 28.9667 5.57738 26.8433 6.77157C24.7198 7.9658 22.9193 9.67298 21.6013 11.7419C20.2834 13.8108 19.4886 16.1776 19.2875 18.6327C19.1523 20.2829 19.288 21.9387 19.6841 23.5338Z" fill="#859F3D"/>
<path d="M9.30806 36.9194C9.30806 36.315 9.44302 35.7752 9.71294 35.2999C9.98873 34.8187 10.3613 34.4461 10.8308 34.1821C11.3061 33.9121 11.8371 33.7772 12.4239 33.7772C13.1104 33.7772 13.7119 33.9532 14.2282 34.3053C14.7446 34.6574 15.1055 35.1444 15.3108 35.7664H13.8938C13.7529 35.473 13.5534 35.2529 13.2952 35.1062C13.0429 34.9595 12.7495 34.8862 12.4151 34.8862C12.0571 34.8862 11.7373 34.9713 11.4557 35.1414C11.1799 35.3057 10.9628 35.5405 10.8044 35.8456C10.6518 36.1507 10.5755 36.5087 10.5755 36.9194C10.5755 37.3243 10.6518 37.6822 10.8044 37.9932C10.9628 38.2983 11.1799 38.536 11.4557 38.7061C11.7373 38.8704 12.0571 38.9526 12.4151 38.9526C12.7495 38.9526 13.0429 38.8792 13.2952 38.7326C13.5534 38.58 13.7529 38.357 13.8938 38.0636H15.3108C15.1055 38.6915 14.7446 39.1814 14.2282 39.5335C13.7177 39.8797 13.1163 40.0528 12.4239 40.0528C11.8371 40.0528 11.3061 39.9208 10.8308 39.6567C10.3613 39.3868 9.98873 39.0142 9.71294 38.5389C9.44302 38.0636 9.30806 37.5238 9.30806 36.9194ZM16.0465 37.5443C16.0465 37.0514 16.1433 36.6143 16.3369 36.2329C16.5364 35.8515 16.8034 35.5581 17.1379 35.3527C17.4782 35.1473 17.8567 35.0446 18.2733 35.0446C18.6371 35.0446 18.954 35.118 19.2239 35.2647C19.4997 35.4114 19.7197 35.5962 19.884 35.8192V35.1238H21.1251V40H19.884V39.2871C19.7256 39.5159 19.5055 39.7066 19.2239 39.8592C18.9481 40.0059 18.6283 40.0792 18.2645 40.0792C17.8538 40.0792 17.4782 39.9736 17.1379 39.7624C16.8034 39.5511 16.5364 39.2548 16.3369 38.8734C16.1433 38.4861 16.0465 38.0431 16.0465 37.5443ZM19.884 37.5619C19.884 37.2627 19.8253 37.0074 19.708 36.7962C19.5906 36.5791 19.4322 36.4148 19.2327 36.3033C19.0332 36.1859 18.819 36.1272 18.5902 36.1272C18.3613 36.1272 18.1501 36.183 17.9564 36.2945C17.7628 36.406 17.6044 36.5703 17.4811 36.7874C17.3638 36.9986 17.3051 37.2509 17.3051 37.5443C17.3051 37.8377 17.3638 38.0959 17.4811 38.3189C17.6044 38.536 17.7628 38.7032 17.9564 38.8206C18.1559 38.9379 18.3672 38.9966 18.5902 38.9966C18.819 38.9966 19.0332 38.9409 19.2327 38.8294C19.4322 38.712 19.5906 38.5477 19.708 38.3365C19.8253 38.1194 19.884 37.8612 19.884 37.5619ZM28.3841 35.0534C28.9827 35.0534 29.4638 35.2383 29.8276 35.6079C30.1973 35.9717 30.3821 36.4822 30.3821 37.1394V40H29.1499V37.3067C29.1499 36.9253 29.0531 36.6348 28.8594 36.4353C28.6658 36.2299 28.4017 36.1272 28.0673 36.1272C27.7328 36.1272 27.4658 36.2299 27.2663 36.4353C27.0727 36.6348 26.9759 36.9253 26.9759 37.3067V40H25.7436V37.3067C25.7436 36.9253 25.6468 36.6348 25.4532 36.4353C25.2595 36.2299 24.9955 36.1272 24.661 36.1272C24.3207 36.1272 24.0508 36.2299 23.8513 36.4353C23.6576 36.6348 23.5608 36.9253 23.5608 37.3067V40H22.3286V35.1238H23.5608V35.7136C23.7192 35.5082 23.9217 35.3468 24.1681 35.2295C24.4204 35.1121 24.6962 35.0534 24.9955 35.0534C25.3769 35.0534 25.7172 35.1356 26.0165 35.2999C26.3157 35.4583 26.5475 35.6872 26.7118 35.9864C26.8702 35.7048 27.0991 35.4788 27.3983 35.3087C27.7035 35.1385 28.0321 35.0534 28.3841 35.0534ZM32.7837 35.828C32.9421 35.605 33.1592 35.4202 33.435 35.2735C33.7167 35.1209 34.0365 35.0446 34.3944 35.0446C34.811 35.0446 35.1866 35.1473 35.521 35.3527C35.8614 35.5581 36.1283 35.8515 36.322 36.2329C36.5215 36.6084 36.6212 37.0456 36.6212 37.5443C36.6212 38.0431 36.5215 38.4861 36.322 38.8734C36.1283 39.2548 35.8614 39.5511 35.521 39.7624C35.1866 39.9736 34.811 40.0792 34.3944 40.0792C34.0365 40.0792 33.7196 40.0059 33.4438 39.8592C33.1739 39.7125 32.9539 39.5276 32.7837 39.3047V42.3237H31.5515V35.1238H32.7837V35.828ZM35.3626 37.5443C35.3626 37.2509 35.301 36.9986 35.1778 36.7874C35.0604 36.5703 34.902 36.406 34.7025 36.2945C34.5088 36.183 34.2976 36.1272 34.0687 36.1272C33.8458 36.1272 33.6345 36.1859 33.435 36.3033C33.2414 36.4148 33.083 36.5791 32.9597 36.7962C32.8424 37.0133 32.7837 37.2685 32.7837 37.5619C32.7837 37.8553 32.8424 38.1106 32.9597 38.3277C33.083 38.5448 33.2414 38.712 33.435 38.8294C33.6345 38.9409 33.8458 38.9966 34.0687 38.9966C34.2976 38.9966 34.5088 38.9379 34.7025 38.8206C34.902 38.7032 35.0604 38.536 35.1778 38.3189C35.301 38.1018 35.3626 37.8436 35.3626 37.5443ZM41.7943 35.7048C41.6535 35.4466 41.4599 35.25 41.2134 35.115C40.967 34.9801 40.6794 34.9126 40.3508 34.9126C39.987 34.9126 39.6643 34.9948 39.3826 35.1591C39.101 35.3234 38.881 35.5581 38.7225 35.8632C38.5641 36.1683 38.4849 36.5204 38.4849 36.9194C38.4849 37.3301 38.5641 37.6881 38.7225 37.9932C38.8868 38.2983 39.1127 38.533 39.4003 38.6973C39.6878 38.8616 40.0222 38.9438 40.4036 38.9438C40.8731 38.9438 41.2574 38.8206 41.5567 38.5741C41.8559 38.3218 42.0525 37.9727 42.1464 37.5267H40.034V36.5849H43.361V37.6587C43.2789 38.0871 43.1028 38.4832 42.8329 38.847C42.563 39.2108 42.2139 39.5042 41.7855 39.7271C41.363 39.9443 40.8877 40.0528 40.3596 40.0528C39.767 40.0528 39.2301 39.9208 38.7489 39.6567C38.2736 39.3868 37.8981 39.0142 37.6223 38.5389C37.3524 38.0636 37.2174 37.5238 37.2174 36.9194C37.2174 36.315 37.3524 35.7752 37.6223 35.2999C37.8981 34.8187 38.2736 34.4461 38.7489 34.1821C39.2301 33.9121 39.7641 33.7772 40.3508 33.7772C41.0432 33.7772 41.6447 33.9473 42.1552 34.2877C42.6657 34.6221 43.0178 35.0945 43.2114 35.7048H41.7943ZM48.8056 37.4563C48.8056 37.6323 48.7938 37.7908 48.7704 37.9316H45.2057C45.235 38.2837 45.3582 38.5595 45.5753 38.759C45.7925 38.9585 46.0594 39.0582 46.3763 39.0582C46.834 39.0582 47.1597 38.8616 47.3533 38.4685H48.6824C48.5415 38.9379 48.2716 39.3252 47.8726 39.6303C47.4736 39.9296 46.9836 40.0792 46.4027 40.0792C45.9333 40.0792 45.5108 39.9765 45.1353 39.7712C44.7656 39.5599 44.4751 39.2636 44.2639 38.8822C44.0585 38.5008 43.9558 38.0607 43.9558 37.5619C43.9558 37.0573 44.0585 36.6143 44.2639 36.2329C44.4693 35.8515 44.7568 35.5581 45.1265 35.3527C45.4961 35.1473 45.9215 35.0446 46.4027 35.0446C46.8663 35.0446 47.2799 35.1444 47.6438 35.3439C48.0134 35.5434 48.298 35.828 48.4975 36.1977C48.7029 36.5615 48.8056 36.981 48.8056 37.4563ZM47.5293 37.1042C47.5235 36.7874 47.409 36.5351 47.1861 36.3473C46.9631 36.1536 46.6902 36.0568 46.3675 36.0568C46.0624 36.0568 45.8042 36.1507 45.593 36.3385C45.3876 36.5204 45.2614 36.7756 45.2145 37.1042H47.5293ZM49.3881 37.5443C49.3881 37.0514 49.485 36.6143 49.6786 36.2329C49.8781 35.8515 50.1451 35.5581 50.4796 35.3527C50.8199 35.1473 51.1984 35.0446 51.615 35.0446C51.9788 35.0446 52.2956 35.118 52.5656 35.2647C52.8414 35.4114 53.0614 35.5962 53.2257 35.8192V35.1238H54.4667V40H53.2257V39.2871C53.0673 39.5159 52.8472 39.7066 52.5656 39.8592C52.2898 40.0059 51.97 40.0792 51.6062 40.0792C51.1954 40.0792 50.8199 39.9736 50.4796 39.7624C50.1451 39.5511 49.8781 39.2548 49.6786 38.8734C49.485 38.4861 49.3881 38.0431 49.3881 37.5443ZM53.2257 37.5619C53.2257 37.2627 53.167 37.0074 53.0497 36.7962C52.9323 36.5791 52.7739 36.4148 52.5744 36.3033C52.3749 36.1859 52.1607 36.1272 51.9318 36.1272C51.703 36.1272 51.4918 36.183 51.2981 36.2945C51.1045 36.406 50.946 36.5703 50.8228 36.7874C50.7055 36.9986 50.6468 37.2509 50.6468 37.5443C50.6468 37.8377 50.7055 38.0959 50.8228 38.3189C50.946 38.536 51.1045 38.7032 51.2981 38.8206C51.4976 38.9379 51.7089 38.9966 51.9318 38.9966C52.1607 38.9966 52.3749 38.9409 52.5744 38.8294C52.7739 38.712 52.9323 38.5477 53.0497 38.3365C53.167 38.1194 53.2257 37.8612 53.2257 37.5619ZM56.9025 35.8808C57.0609 35.6226 57.2663 35.4202 57.5186 35.2735C57.7768 35.1268 58.0702 35.0534 58.3988 35.0534V36.3473H58.0731C57.6858 36.3473 57.3924 36.4382 57.1929 36.6201C56.9993 36.802 56.9025 37.1189 56.9025 37.5707V40H55.6702V35.1238H56.9025V35.8808Z" fill="#F6FCDF"/>
</svg>
